<svg xmlns="http://www.w3.org/2000/svg" width="60" height="64" fill="none">
  <path fill="#2e2f42" d="m59.405 44.195-16.887-17.01 1.874-9.23c.484.188.998.287 1.517.29h.013a4.318 4.318 0 1 0-4.017-2.87l-9.92 1.21L15.804.32A1.07 1.07 0 0 0 15.05 0c-.28.001-.549.113-.747.31l-3.025 3.008a1.067 1.067 0 0 0 0 1.509l1.628 1.65a29.885 29.885 0 0 0 5.039 35.327q.129.122.292.195a6 6 0 0 0-.105 1.094v12.374h-12.8A5.34 5.34 0 0 0 0 60.8v2.133C0 63.523.478 64 1.067 64h49.066c.59 0 1.067-.478 1.067-1.067V60.8a5.34 5.34 0 0 0-5.333-5.333h-12.8v-5.484c2.005.42 4.048.635 6.097.64a29.7 29.7 0 0 0 14.08-3.567l1.636 1.646c.198.202.47.318.753.32.28-.002.548-.113.747-.31l3.025-3.009a1.067 1.067 0 0 0 0-1.508M44.418 12.466a2.133 2.133 0 1 1 1.504 3.646h-.006a2.133 2.133 0 0 1-1.494-3.646zm-2.51 7.01-1.198 5.89-2.35-2.364zm-1.212-1.804-3.84 3.817-2.971-2.987zm5.17 39.928a3.2 3.2 0 0 1 3.2 3.2v1.067H2.134V60.8a3.2 3.2 0 0 1 3.2-3.2zm-14.933-4.267v2.134H20.267v-2.134zM20.267 51.2v-8.107c0-2.587 2.392-4.693 5.333-4.693 2.94 0 5.333 2.106 5.333 4.693V51.2zm12.8-3.392v-4.715c0-3.764-3.35-6.826-7.467-6.826a7.6 7.6 0 0 0-6.562 3.572A27.74 27.74 0 0 1 14.48 8.065l37.203 37.417a27.64 27.64 0 0 1-18.617 2.326m22.578-1.367-1.503-1.512L15.04 5.591 13.53 4.08l1.51-1.504 15.87 15.96c.007 0 .012.013.02.019l26.228 26.383z"/>
</svg>
